Jump_normalized_Motion_pl06
version=1
nRows=16
nColumns=43
inDegrees=yes
endheader
time		pelvis_tilt		pelvis_list		pelvis_rotation		pelvis_tx		pelvis_ty		pelvis_tz		hip_flexion_r		hip_adduction_r		hip_rotation_r		knee_angle_r		ankle_angle_r		subtalar_angle_r		mtp_angle_r		hip_flexion_l		hip_adduction_l		hip_rotation_l		knee_angle_l		ankle_angle_l		subtalar_angle_l		mtp_angle_l		lumbar_extension		lumbar_bending		lumbar_rotation		neck_flexion		neck_lateral_bending		neck_rotation		arm_flex_r		arm_add_r		arm_rot_r		elbow_flex_r		pro_sup_r		wrist_flex_r		wrist_dev_r		hand_finger_flex_r		arm_flex_l		arm_add_l		arm_rot_l		elbow_flex_l		pro_sup_l		wrist_flex_l		wrist_dev_l		hand_finger_flex_l		
0.418333		-1.840281		-17.395029		94.055327		-0.006468		1.777477		1.815319		72.697935		-10.504862		11.680819		-131.205637		27.859517		-4.841358		2.173148		73.502615		2.209124		8.393810		-130.972750		31.719983		-6.253106		11.194208		-50.353980		1.001469		-3.047773		36.695419		2.164953		-3.190235		118.611085		-14.198030		33.092827		58.447537		63.777794		-31.745087		3.530829		42.027664		117.815485		-6.888147		25.541048		63.700070		105.098609		-19.269893		12.292571		80.168804		
0.421237		-1.893724		-17.597839		94.059091		-0.006818		1.779095		1.812161		72.373118		-10.571921		11.682946		-130.909787		27.761175		-4.833231		2.167182		73.155431		2.346598		8.323555		-130.688645		31.663995		-6.418559		11.234790		-50.198617		0.990293		-3.124560		36.725072		2.202806		-3.157555		119.678969		-13.989857		33.314648		58.302730		63.807263		-31.483705		3.381230		42.041561		118.821094		-6.723018		25.618641		63.533943		105.169320		-19.273473		12.148480		80.610387		
0.424141		-1.945151		-17.815653		94.063392		-0.007109		1.780725		1.808953		72.046801		-10.624944		11.669855		-130.595453		27.679549		-4.827489		2.163638		72.805589		2.488686		8.265617		-130.390502		31.612059		-6.585929		11.275660		-50.022742		0.973190		-3.204696		36.778276		2.229165		-3.125764		120.717638		-13.770802		33.505529		58.143560		63.826370		-31.239403		3.223836		42.052149		119.804142		-6.542554		25.674299		63.349294		105.232652		-19.291397		12.005871		81.054827		
0.427045		-1.924334		-18.210661		94.077516		-0.007240		1.781934		1.805899		71.912359		-10.611529		11.588671		-130.299277		27.709177		-4.838803		2.169647		72.687858		2.584813		8.299149		-130.119895		31.630923		-6.663618		11.293800		-49.629967		0.965681		-3.235985		36.940227		2.249382		-3.121887		121.622076		-13.426493		33.422446		57.942700		63.825544		-31.232633		3.113703		42.014062		120.720311		-6.231405		25.573904		63.059175		105.266812		-19.380884		11.958421		81.206458		
0.429949		-1.918161		-18.588109		94.070666		-0.007339		1.783185		1.802529		71.725144		-10.598630		11.524397		-129.995075		27.699276		-4.830276		2.168376		72.511524		2.655141		8.324207		-129.852016		31.610728		-6.685702		11.298132		-49.214568		0.941496		-3.246280		36.807411		2.275644		-3.124726		122.353775		-13.206136		33.323837		58.014444		63.833883		-31.217217		3.020735		42.001031		121.438217		-6.043864		25.464762		63.077048		105.279496		-19.435070		11.910461		81.279829		
0.432854		-1.444809		-18.774055		94.466028		-0.007665		1.784753		1.799305		71.145997		-10.600838		10.793525		-129.610013		27.680487		-5.204173		2.158801		72.259519		2.785031		8.906305		-129.624084		31.427075		-7.000535		11.439983		-49.027667		1.472125		-3.058284		37.020693		2.171554		-3.086419		123.520689		-13.006218		33.876177		57.548318		63.508534		-30.820235		2.066733		41.992023		122.472403		-5.842341		25.634372		62.633846		105.137915		-20.115320		11.532271		83.342157		
0.435758		-1.431506		-19.200619		94.450018		-0.007706		1.785866		1.795881		71.009185		-10.574323		10.729280		-129.303190		27.677435		-5.192016		2.155868		72.129800		2.831911		8.940570		-129.355918		31.432428		-6.976634		11.447372		-48.522339		1.427004		-3.053560		36.861495		2.214671		-3.109865		124.192521		-12.784979		33.785089		57.565211		63.515238		-30.860717		2.028013		41.948553		123.146684		-5.648891		25.568513		62.589974		105.154044		-20.199515		11.524046		83.369190		
0.438662		-1.386837		-19.661515		94.469400		-0.007736		1.786837		1.792570		70.921659		-10.532874		10.640148		-129.021185		27.689331		-5.201295		2.153742		72.065591		2.876974		9.007761		-129.091867		31.455198		-6.959090		11.459491		-47.974465		1.411405		-3.037910		36.786404		2.260068		-3.145050		124.919650		-12.544564		33.751602		57.456102		63.527516		-30.916535		1.989550		41.880241		123.898408		-5.415402		25.566860		62.387294		105.178427		-20.309112		11.536220		83.423435		
0.441566		-1.297351		-20.142636		94.517714		-0.007799		1.787761		1.789239		70.848977		-10.497604		10.478966		-128.725431		27.667859		-5.239502		2.144834		72.052665		2.927644		9.135220		-128.875328		31.471141		-6.952993		11.471467		-47.392912		1.437567		-2.975982		36.678929		2.278391		-3.195886		125.648265		-12.366146		33.807291		57.357414		63.556938		-30.953550		1.895665		41.797420		124.654681		-5.183940		25.599904		62.163623		105.170454		-20.447493		11.546602		83.531605		
0.444470		-1.232821		-20.594420		94.553451		-0.007907		1.788861		1.785691		70.719435		-10.465755		10.358726		-128.406345		27.633085		-5.259610		2.135129		71.947974		2.969616		9.220204		-128.590000		31.460970		-6.937087		11.477311		-46.833874		1.454746		-2.917960		36.517159		2.293461		-3.232823		126.290956		-12.209885		33.816259		57.362699		63.580480		-30.975083		1.803846		41.739388		125.300243		-4.994667		25.578567		62.074455		105.154125		-20.558369		11.539561		83.613558		
0.447374		-1.212862		-21.015175		94.553625		-0.008052		1.790240		1.781946		70.533109		-10.442422		10.279261		-128.038373		27.587021		-5.255063		2.125363		71.763450		3.020418		9.262539		-128.260565		31.441296		-6.921314		11.477729		-46.311782		1.435709		-2.879415		36.317234		2.296609		-3.252093		126.863697		-12.065773		33.765591		57.436957		63.605244		-30.988494		1.724613		41.708213		125.865113		-4.826051		25.486796		62.083030		105.136829		-20.633551		11.518177		83.651225		
0.450278		-0.522345		-21.679372		94.946828		-0.008303		1.790736		1.778753		70.539317		-10.216650		9.435718		-127.664780		27.348693		-5.860892		2.016737		72.088594		2.953486		10.044533		-128.124523		31.398167		-6.793878		11.602022		-45.457217		2.023713		-2.272826		36.248751		1.987657		-3.549226		127.796191		-12.219371		34.669443		57.238729		63.674207		-31.116973		0.813420		41.404665		126.487059		-4.357605		25.440758		61.580215		104.617310		-22.081807		11.232928		85.427098		
0.453182		-0.548973		-22.067540		94.906423		-0.008459		1.792306		1.774771		70.299276		-10.207596		9.393281		-127.258694		27.295113		-5.821463		2.005689		71.813102		3.013330		10.053059		-127.765743		31.378790		-6.773409		11.602968		-44.957075		1.956075		-2.270185		36.028555		2.029340		-3.548256		128.310726		-12.056924		34.586583		57.291394		63.686380		-31.130744		0.788637		41.395336		127.000145		-4.215458		25.346002		61.608154		104.622312		-22.138589		11.214521		85.450091		
0.456086		-0.589468		-22.431356		94.881197		-0.008652		1.793839		1.770905		70.057450		-10.202385		9.380932		-126.885123		27.208242		-5.809164		1.986051		71.529014		3.107524		10.060050		-127.403715		31.399091		-6.784291		11.614504		-44.492673		1.882057		-2.261754		35.870529		2.084361		-3.559213		128.949631		-11.889548		34.603800		57.153184		63.782933		-31.165817		0.754300		41.395638		127.624006		-3.930606		25.226050		61.371150		104.628854		-22.248625		11.219547		85.548918		
0.458990		-0.633291		-22.778677		94.848349		-0.008863		1.795398		1.766952		69.791418		-10.203899		9.365534		-126.500560		27.108263		-5.803823		1.963786		71.216245		3.205249		10.064066		-127.039105		31.408851		-6.799730		11.626349		-44.040365		1.802145		-2.243945		35.722719		2.133017		-3.579462		129.580711		-11.746704		34.649445		57.023954		63.908521		-31.197295		0.699863		41.409504		128.228929		-3.633471		25.094804		61.126322		104.630032		-22.366153		11.222542		85.678836		
0.461894		-0.659153		-23.146954		94.807745		-0.009013		1.797102		1.762764		69.502770		-10.182906		9.325062		-126.069631		27.036540		-5.778194		1.950361		70.895017		3.268617		10.080255		-126.639281		31.362083		-6.787383		11.623465		-43.553938		1.732401		-2.221028		35.534514		2.143272		-3.593675		130.059144		-11.636440		34.593736		57.091457		63.967101		-31.208992		0.632753		41.418915		128.688351		-3.468163		24.972032		61.148478		104.620344		-22.416510		11.203510		85.729809		
